<svg width="1920" height="1080" viewBox="0 0 1920 1080" fill="none" xmlns="http://www.w3.org/2000/svg">
<g clip-path="url(#clip0_81_193)">
<mask id="mask0_81_193" style="mask-type:luminance" maskUnits="userSpaceOnUse" x="0" y="0" width="1920" height="1080">
<path d="M1920 0H0V1080H1920V0Z" fill="white"/>
</mask>
<g mask="url(#mask0_81_193)">
<mask id="mask1_81_193" style="mask-type:luminance" maskUnits="userSpaceOnUse" x="-398" y="0" width="2716" height="1080">
<path d="M2317.69 0H-397.721V1080H2317.69V0Z" fill="white"/>
</mask>
<g mask="url(#mask1_81_193)">
<path d="M3120.52 1080.45H-1200.55L-1196.39 1079.58L507.286 719.541L1412.84 719.577L3120.52 1080.45ZM-1191.68 1079.55H3111.65L1412.42 720.466H507.576L-1191.65 1079.55H-1191.68Z" fill="black"/>
<path d="M2362.1 920.199H-442.135V921.106H2362.1V920.199Z" fill="black"/>
<path d="M1998.83 843.437H-78.8604V844.344H1998.83V843.437Z" fill="black"/>
<path d="M1785.08 798.262H134.917V799.169H1785.08V798.262Z" fill="black"/>
<path d="M1644.29 768.507H275.736V769.414H1644.29V768.507Z" fill="black"/>
<path d="M1544.5 747.426H375.465V748.333H1544.5V747.426Z" fill="black"/>
<path d="M1470.12 731.714H449.843V732.621H1470.12V731.714Z" fill="black"/>
<path d="M-764.543 1080.4L-765.221 1079.58L597.596 719.577L598.273 720.411L-764.543 1080.4Z" fill="black"/>
<path d="M687.918 719.447L-333.879 1079.71L-333.022 1080.48L688.775 720.216L687.918 719.447Z" fill="black"/>
<path d="M778.11 719.467L97.3096 1079.84L98.4148 1080.5L779.215 720.127L778.11 719.467Z" fill="black"/>
<path d="M868.983 719.922L527.819 1079.78L529.242 1080.21L870.406 720.349L868.983 719.922Z" fill="black"/>
<path d="M960.806 719.994H959.193V1079.98H960.806V719.994Z" fill="black"/>
<path d="M1051.25 719.757L1049.82 720.183L1390.54 1080.18L1391.96 1079.75L1051.25 719.757Z" fill="black"/>
<path d="M1141.53 719.561L1140.43 720.222L1821.9 1080.19L1823 1079.53L1141.53 719.561Z" fill="black"/>
<path d="M1231.94 719.562L1231.08 720.331L2253.22 1080.3L2254.07 1079.53L1231.94 719.562Z" fill="black"/>
<path d="M2684.51 1080.4L1321.69 720.411L1322.4 719.577L2685.22 1079.58L2684.51 1080.4Z" fill="black"/>
<path d="M7428.26 1080.45H3115.94L3115.81 1080.42L1408.13 719.541H2317.82L7428.39 1079.55L7428.29 1080.45H7428.26ZM3116.23 1079.55H7415.33L2317.62 720.466H1416.97L3116.19 1079.55H3116.23Z" fill="black"/>
<path d="M3435.25 798.262H1785.08V799.169H3435.25V798.262Z" fill="black"/>
<path d="M3012.82 768.508H1644.26V769.415H3012.82V768.508Z" fill="black"/>
<path d="M2713.54 747.426H1544.5V748.333H2713.54V747.426Z" fill="black"/>
<path d="M2490.47 731.714H1470.16V732.621H2490.47V731.714Z" fill="black"/>
<path d="M1503.18 719.529L1502.7 720.395L3546.97 1080.31L3547.45 1079.45L1503.18 719.529Z" fill="black"/>
<path d="M1593.72 719.548L1593.31 720.424L3978.26 1080.39L3978.67 1079.51L1593.72 719.548Z" fill="black"/>
<path d="M1684.07 719.524L1683.7 720.407L4409.4 1080.3L4409.77 1079.42L1684.07 719.524Z" fill="black"/>
<path d="M1774.81 719.559L1774.48 720.447L4840.82 1080.47L4841.15 1079.58L1774.81 719.559Z" fill="black"/>
<path d="M1865.35 719.567L1865.05 720.458L5272.08 1080.5L5272.37 1079.61L1865.35 719.567Z" fill="black"/>
<path d="M-1195.97 1080.45H-5508.29L-5508.39 1079.55L-397.818 719.541H511.866L507.706 720.411L-1195.97 1080.44V1080.45ZM-5495.39 1079.55H-1196.26L502.996 720.448H-397.721L-5495.36 1079.53L-5495.39 1079.55Z" fill="black"/>
<path d="M134.917 798.262H-1515.25V799.169H134.917V798.262Z" fill="black"/>
<path d="M275.737 768.507H-1092.82V769.414H275.737V768.507Z" fill="black"/>
<path d="M375.465 747.426H-793.571V748.333H375.465V747.426Z" fill="black"/>
<path d="M449.843 731.714H-570.439V732.621H449.843V731.714Z" fill="black"/>
<path d="M54.6822 719.523L-3352.35 1079.56L-3352.05 1080.45L54.9799 720.415L54.6822 719.523Z" fill="black"/>
<path d="M145.022 718.82L-2920.75 1080.34L-2920.42 1081.23L145.353 719.708L145.022 718.82Z" fill="black"/>
<path d="M235.627 719.461L-2489.96 1079.62L-2489.59 1080.5L235.996 720.344L235.627 719.461Z" fill="black"/>
<path d="M325.901 719.194L-2058.71 1079.86L-2058.3 1080.74L326.32 720.07L325.901 719.194Z" fill="black"/>
<path d="M416.632 719.687L-1627.75 1079.4L-1627.27 1080.27L417.113 720.553L416.632 719.687Z" fill="black"/>
<path d="M1412.71 360.46L507.157 360.424L-1200.55 -0.453125H3120.52L1412.71 360.46ZM507.576 359.553H1412.42L3111.65 0.454011H-1191.65L507.576 359.553Z" fill="black"/>
<path d="M2362.1 158.876H-442.135V159.783H2362.1V158.876Z" fill="black"/>
<path d="M1998.83 235.656H-78.8613V236.563H1998.83V235.656Z" fill="black"/>
<path d="M1785.08 280.832H134.917V281.739H1785.08V280.832Z" fill="black"/>
<path d="M1644.29 310.585H275.736V311.493H1644.29V310.585Z" fill="black"/>
<path d="M1544.5 331.667H375.465V332.575H1544.5V331.667Z" fill="black"/>
<path d="M1470.12 347.379H449.842V348.286H1470.12V347.379Z" fill="black"/>
<path d="M597.596 360.405L-765.221 0.417573L-764.543 -0.416992L598.273 359.589L597.596 360.405Z" fill="black"/>
<path d="M-333.246 -0.369461L-334.102 0.399414L688.031 360.366L688.887 359.597L-333.246 -0.369461Z" fill="black"/>
<path d="M98.0708 -0.353657L96.9668 0.307617L778.437 360.276L779.541 359.615L98.0708 -0.353657Z" fill="black"/>
<path d="M529.481 -0.225122L528.058 0.201172L868.774 360.194L870.198 359.767L529.481 -0.225122Z" fill="black"/>
<path d="M960.806 0H959.193V360.006H960.806V0Z" fill="black"/>
<path d="M1390.77 -0.109019L1049.61 359.75L1051.03 360.176L1392.19 0.317834L1390.77 -0.109019Z" fill="black"/>
<path d="M1821.58 -0.523696L1140.78 359.846L1141.88 360.506L1822.68 0.136928L1821.58 -0.523696Z" fill="black"/>
<path d="M2253.01 -0.578383L1231.21 359.689L1232.07 360.458L2253.86 0.19024L2253.01 -0.578383Z" fill="black"/>
<path d="M1322.4 360.405L1321.69 359.589L2684.51 -0.416992L2685.22 0.417573L1322.4 360.405Z" fill="black"/>
<path d="M2317.75 360.46H1408.13L1412.29 359.589L3115.94 -0.453613H7428.26L7428.36 0.453523L2317.75 360.46ZM1417 359.552H2317.66L7415.36 0.453523H3116.23L1417 359.552Z" fill="black"/>
<path d="M3435.25 280.831H1785.08V281.738H3435.25V280.831Z" fill="black"/>
<path d="M3012.82 310.585H1644.26V311.493H3012.82V310.585Z" fill="black"/>
<path d="M2713.54 331.667H1544.5V332.574H2713.54V331.667Z" fill="black"/>
<path d="M2490.47 347.379H1470.16V348.286H2490.47V347.379Z" fill="black"/>
<path d="M3547.16 -0.199817L1502.78 359.516L1503.26 360.382L3547.64 0.66595L3547.16 -0.199817Z" fill="black"/>
<path d="M3978.2 -0.664451L1593.58 360.003L1594 360.879L3978.62 0.21157L3978.2 -0.664451Z" fill="black"/>
<path d="M4409.55 -0.486816L1683.96 359.673L1684.33 360.556L4409.92 0.39628L4409.55 -0.486816Z" fill="black"/>
<path d="M4840.49 -1.30664L1774.72 360.216L1775.05 361.104L4840.82 -0.418805L4840.49 -1.30664Z" fill="black"/>
<path d="M5272.03 -0.461285L1865 359.578L1865.3 360.47L5272.33 0.430254L5272.03 -0.461285Z" fill="black"/>
<path d="M511.866 360.46H-397.721L-5508.39 0.453523L-5508.29 -0.453613H-1195.97L-1195.84 -0.417328L511.866 360.46ZM-5495.36 0.453523L-397.624 359.552H502.996L-1196.26 0.453523H-5495.36Z" fill="black"/>
<path d="M134.917 280.831H-1515.25V281.738H134.917V280.831Z" fill="black"/>
<path d="M275.737 310.585H-1092.82V311.493H275.737V310.585Z" fill="black"/>
<path d="M375.465 331.667H-793.571V332.574H375.465V331.667Z" fill="black"/>
<path d="M449.843 347.379H-570.439V348.286H449.843V347.379Z" fill="black"/>
<path d="M-3352.1 -0.454528L-3352.39 0.437012L54.6343 360.476L54.9321 359.585L-3352.1 -0.454528Z" fill="black"/>
<path d="M-2920.82 -0.452451L-2921.15 0.435547L145.187 360.453L145.517 359.565L-2920.82 -0.452451Z" fill="black"/>
<path d="M-2489.5 -0.380691L-2489.87 0.502441L235.832 360.395L236.2 359.512L-2489.5 -0.380691Z" fill="black"/>
<path d="M-2058.32 -0.411789L-2058.74 0.464355L326.21 360.429L326.628 359.553L-2058.32 -0.411789Z" fill="black"/>
<path d="M-1627.05 -0.397947L-1627.53 0.467773L416.736 360.384L417.217 359.519L-1627.05 -0.397947Z" fill="black"/>
<path d="M1413.36 720.447H506.608V359.534H1413.36V720.447ZM508.221 719.54H1411.74V360.441H508.221V719.54Z" fill="black"/>
<path d="M1412.55 668.105H507.415V669.013H1412.55V668.105Z" fill="black"/>
<path d="M1412.55 616.689H507.415V617.596H1412.55V616.689Z" fill="black"/>
<path d="M1412.55 565.254H507.415V566.162H1412.55V565.254Z" fill="black"/>
<path d="M1412.55 513.82H507.415V514.727H1412.55V513.82Z" fill="black"/>
<path d="M1412.55 462.403H507.415V463.31H1412.55V462.403Z" fill="black"/>
<path d="M1412.55 410.969H507.415V411.876H1412.55V410.969Z" fill="black"/>
<path d="M598.757 360.006H597.145V720.012H598.757V360.006Z" fill="black"/>
<path d="M689.261 360.006H687.648V720.012H689.261V360.006Z" fill="black"/>
<path d="M779.765 360.006H778.152V720.012H779.765V360.006Z" fill="black"/>
<path d="M870.269 360.006H868.656V720.012H870.269V360.006Z" fill="black"/>
<path d="M960.806 360.006H959.193V720.012H960.806V360.006Z" fill="black"/>
<path d="M1051.31 360.006H1049.7V720.012H1051.31V360.006Z" fill="black"/>
<path d="M1141.81 360.006H1140.2V720.012H1141.81V360.006Z" fill="black"/>
<path d="M1232.35 360.006H1230.74V720.012H1232.35V360.006Z" fill="black"/>
<path d="M1322.85 360.006H1321.24V720.012H1322.85V360.006Z" fill="black"/>
<path d="M2318.5 720.447H1411.75V359.534H2318.5V720.447ZM1413.36 719.54H2316.88V360.441H1413.36V719.54Z" fill="black"/>
<path d="M2317.69 668.105H1412.55V669.013H2317.69V668.105Z" fill="black"/>
<path d="M2317.69 616.689H1412.55V617.596H2317.69V616.689Z" fill="black"/>
<path d="M2317.69 565.254H1412.55V566.162H2317.69V565.254Z" fill="black"/>
<path d="M2317.69 513.82H1412.55V514.727H2317.69V513.82Z" fill="black"/>
<path d="M2317.69 462.403H1412.55V463.31H2317.69V462.403Z" fill="black"/>
<path d="M2317.69 410.969H1412.55V411.876H2317.69V410.969Z" fill="black"/>
<path d="M1503.89 360.006H1502.28V720.012H1503.89V360.006Z" fill="black"/>
<path d="M1594.4 360.006H1592.79V720.012H1594.4V360.006Z" fill="black"/>
<path d="M1684.9 360.006H1683.29V720.012H1684.9V360.006Z" fill="black"/>
<path d="M1775.41 360.006H1773.79V720.012H1775.41V360.006Z" fill="black"/>
<path d="M1865.94 360.006H1864.33V720.012H1865.94V360.006Z" fill="black"/>
<path d="M508.222 720.447H-398.527V359.534H508.222V720.447ZM-396.915 719.54H506.609V360.441H-396.915V719.54Z" fill="black"/>
<path d="M507.415 668.105H-397.722V669.013H507.415V668.105Z" fill="black"/>
<path d="M507.415 616.689H-397.722V617.596H507.415V616.689Z" fill="black"/>
<path d="M507.415 565.254H-397.722V566.162H507.415V565.254Z" fill="black"/>
<path d="M507.415 513.82H-397.722V514.727H507.415V513.82Z" fill="black"/>
<path d="M507.415 462.403H-397.722V463.31H507.415V462.403Z" fill="black"/>
<path d="M507.415 410.969H-397.722V411.876H507.415V410.969Z" fill="black"/>
<path d="M55.6693 360.006H54.0566V720.012H55.6693V360.006Z" fill="black"/>
<path d="M146.173 360.006H144.561V720.012H146.173V360.006Z" fill="black"/>
<path d="M236.677 360.006H235.064V720.012H236.677V360.006Z" fill="black"/>
<path d="M327.213 360.006H325.601V720.012H327.213V360.006Z" fill="black"/>
<path d="M417.717 360.006H416.104V720.012H417.717V360.006Z" fill="black"/>
</g>
</g>
</g>
<defs>
<clipPath id="clip0_81_193">
<rect width="1920" height="1080" fill="white"/>
</clipPath>
</defs>
</svg>
