<svg width="1080" height="1080" viewBox="0 0 1080 1080" fill="none" xmlns="http://www.w3.org/2000/svg">
<g clip-path="url(#clip0_82_478)">
<line x1="120.5" y1="2.18557e-08" x2="120.5" y2="1080" stroke="black"/>
<line x1="1080" y1="120.5" x2="-4.37115e-08" y2="120.5" stroke="black"/>
<line x1="240.5" y1="2.18557e-08" x2="240.5" y2="1080" stroke="black"/>
<line x1="1080" y1="240.5" x2="-4.37115e-08" y2="240.5" stroke="black"/>
<line x1="360.5" y1="2.18557e-08" x2="360.5" y2="1080" stroke="black"/>
<line x1="1080" y1="360.5" x2="-4.37115e-08" y2="360.5" stroke="black"/>
<line x1="480.5" y1="2.18557e-08" x2="480.5" y2="1080" stroke="black"/>
<line x1="1080" y1="480.5" x2="-4.37115e-08" y2="480.5" stroke="black"/>
<line x1="600.5" y1="2.18557e-08" x2="600.5" y2="1080" stroke="black"/>
<line x1="1080" y1="600.5" x2="-4.37115e-08" y2="600.5" stroke="black"/>
<line x1="720.5" y1="2.18557e-08" x2="720.5" y2="1080" stroke="black"/>
<line x1="1080" y1="720.5" x2="-4.37115e-08" y2="720.5" stroke="black"/>
<line x1="840.5" y1="2.18557e-08" x2="840.5" y2="1080" stroke="black"/>
<line x1="1080" y1="840.5" x2="-4.37115e-08" y2="840.5" stroke="black"/>
<line x1="960.5" y1="2.18557e-08" x2="960.5" y2="1080" stroke="black"/>
<line x1="1080" y1="960.5" x2="-4.37115e-08" y2="960.5" stroke="black"/>
</g>
<defs>
<clipPath id="clip0_82_478">
<rect width="1080" height="1080" fill="white"/>
</clipPath>
</defs>
</svg>
