<?xml version="1.0" encoding="utf-8"?>
<!-- Generator: Adobe Illustrator 27.2.0, SVG Export Plug-In . SVG Version: 6.00 Build 0)  -->
<svg version="1.1" id="perspective" xmlns="http://www.w3.org/2000/svg" xmlns:xlink="http://www.w3.org/1999/xlink" x="0px"
	 y="0px" viewBox="0 0 595.3 595.3" style="enable-background:new 0 0 595.3 595.3;" xml:space="preserve">
<style type="text/css">
	.st0{clip-path:url(#SVGID_00000179618634703808375950000009469507266923413388_);}
</style>
<g>
	<defs>
		<rect id="SVGID_1_" width="595.3" height="595.3"/>
	</defs>
	<clipPath id="SVGID_00000002370352716543302050000000496310793356385920_">
		<use xlink:href="#SVGID_1_"  style="overflow:visible;"/>
	</clipPath>
	<g style="clip-path:url(#SVGID_00000002370352716543302050000000496310793356385920_);">
		<g>
			<g>
				<path d="M-123.6,595.7V-0.1l0.4,0.3l280.7,198.1v198.7l-0.1,0.1L-123.6,595.7L-123.6,595.7z M-123.1,0.8v593.9l280.1-198V198.5
					L-123.1,0.8z"/>
				<polygon points="-123.2,510.4 -123.4,510 157.2,368.2 157.4,368.7 				"/>
				<rect x="-129.6" y="382.4" transform="matrix(0.9573 -0.2892 0.2892 0.9573 -109.9264 21.2733)" width="293.2" height="0.5"/>
				<polygon points="-123.3,340.4 -123.3,339.9 157.3,311.5 157.4,312 				"/>
				<polygon points="157.3,283.7 -123.3,255.3 -123.3,254.8 157.4,283.2 				"/>
				<rect x="16.8" y="66" transform="matrix(0.29 -0.957 0.957 0.29 -191.3701 167.2082)" width="0.5" height="293.2"/>
				<polygon points="157.2,227 -123.4,85.2 -123.2,84.8 157.4,226.5 				"/>
				<rect x="34.3" y="111.6" width="0.5" height="372"/>
				<rect x="63.5" y="132.3" width="0.5" height="330.7"/>
				<rect x="86.9" y="148.8" width="0.5" height="297.6"/>
				<rect x="106.1" y="162.3" width="0.5" height="270.5"/>
				<rect x="122" y="173.6" width="0.5" height="248"/>
				<rect x="135.5" y="183.1" width="0.5" height="228.9"/>
				<rect x="147.1" y="191.3" width="0.5" height="212.6"/>
			</g>
			<g>
				<path d="M560.4,483.1H34.9l122.4-86.5H438l0.1,0L560.4,483.1L560.4,483.1z M36.5,482.6h522.4l-121-85.5H157.4L36.5,482.6
					L36.5,482.6z"/>
				<rect x="64.5" y="462.1" width="466.2" height="0.5"/>
				<rect x="87.7" y="445.8" width="419.9" height="0.5"/>
				<rect x="106.6" y="432.4" width="382" height="0.5"/>
				<rect x="122.5" y="421.2" width="350.4" height="0.5"/>
				<rect x="135.9" y="411.7" width="323.6" height="0.5"/>
				<rect x="147.4" y="403.6" width="300.6" height="0.5"/>
				<rect x="71.8" y="439.6" transform="matrix(0.7487 -0.6629 0.6629 0.7487 -257.1965 201.147)" width="129.9" height="0.5"/>
				<rect x="120.5" y="439.6" transform="matrix(0.6471 -0.7624 0.7624 0.6471 -272.8687 290.1419)" width="112.8" height="0.5"/>
				<rect x="167.8" y="439.6" transform="matrix(0.492 -0.8706 0.8706 0.492 -272.5897 412.5289)" width="98.8" height="0.5"/>
				<rect x="212.7" y="439.6" transform="matrix(0.2719 -0.9623 0.9623 0.2719 -235.8608 567.9485)" width="89.4" height="0.5"/>
				<rect x="297.4" y="396.8" width="0.5" height="86"/>
				<rect x="337.6" y="395.1" transform="matrix(0.9622 -0.2723 0.2723 0.9622 -106.9751 108.6176)" width="0.5" height="89.4"/>
				<rect x="377.8" y="390.4" transform="matrix(0.8704 -0.4924 0.4924 0.8704 -167.5561 243.2004)" width="0.5" height="98.8"/>
				<rect x="418.1" y="383.4" transform="matrix(0.7624 -0.6471 0.6471 0.7624 -185.206 375.1645)" width="0.5" height="112.8"/>
				<rect x="458.3" y="374.9" transform="matrix(0.6622 -0.7493 0.7493 0.6622 -174.6786 492.1557)" width="0.5" height="129.9"/>
			</g>
			<g>
				<rect x="-53.2" y="545.6" width="701.7" height="0.5"/>
				<rect x="-2.3" y="510" width="600" height="0.5"/>
				<polygon points="-39.7,595.4 -40,595 87.9,483.5 88.2,483.8 				"/>
				<polygon points="44.8,595.4 44.5,595 140.3,483.5 140.6,483.8 				"/>
				<rect x="96.5" y="539.2" transform="matrix(0.498 -0.8672 0.8672 0.498 -387.0393 410.2386)" width="128.6" height="0.5"/>
				<rect x="171.2" y="539.2" transform="matrix(0.2755 -0.9613 0.9613 0.2755 -352.4645 611.2393)" width="116.1" height="0.5"/>
				<rect x="297.4" y="483.6" width="0.5" height="111.6"/>
				<rect x="365.7" y="481.4" transform="matrix(0.9615 -0.2748 0.2748 0.9615 -134.1504 121.3339)" width="0.5" height="116"/>
				<polygon points="465.9,595.3 402.2,483.8 402.6,483.5 466.3,595.1 				"/>
				<polygon points="545.4,595.4 454.6,483.8 455,483.5 545.8,595 				"/>
				<polygon points="634.9,595.4 507,483.8 507.4,483.5 635.2,595 				"/>
			</g>
			<g>
				<g>
					<path d="M718.8,595.4l-0.4-0.3L437.7,397V198.3l0.1-0.1l281-198.7V595.4L718.8,595.4z M438.2,396.7l280.1,197.7V0.6
						L438.2,198.6V396.7L438.2,396.7z"/>
					<polygon points="438.1,227 437.8,226.6 718.5,84.9 718.7,85.3 					"/>
					<rect x="431.7" y="212.4" transform="matrix(0.9573 -0.2892 0.2892 0.9573 -36.7763 176.321)" width="293.2" height="0.5"/>
					<polygon points="438,283.8 437.9,283.2 718.6,254.9 718.6,255.4 					"/>
					<polygon points="718.6,340.4 437.9,312.1 438,311.6 718.6,339.9 					"/>
					<rect x="578" y="236.1" transform="matrix(0.29 -0.957 0.957 0.29 44.2859 825.1636)" width="0.5" height="293.2"/>
					<polygon points="718.5,510.5 437.8,368.8 438.1,368.3 718.7,510 					"/>
					<rect x="560.5" y="111.7" width="0.5" height="372"/>
					<rect x="531.2" y="132.3" width="0.5" height="330.7"/>
					<rect x="507.9" y="148.9" width="0.5" height="297.6"/>
					<rect x="488.7" y="162.4" width="0.5" height="270.5"/>
					<rect x="472.8" y="173.7" width="0.5" height="248"/>
					<rect x="459.3" y="183.2" width="0.5" height="228.9"/>
					<rect x="447.7" y="191.4" width="0.5" height="212.6"/>
				</g>
				<g>
					<path d="M438,198.7H157.2l-0.1-0.1L34.9,112.2h525.5L438,198.7L438,198.7z M157.4,198.2h280.5l121-85.5H36.5L157.4,198.2z"/>
					<rect x="64.5" y="132.6" width="466.2" height="0.5"/>
					<rect x="87.7" y="149" width="419.9" height="0.5"/>
					<rect x="106.6" y="162.4" width="382" height="0.5"/>
					<rect x="122.5" y="173.6" width="350.4" height="0.5"/>
					<rect x="135.9" y="183.1" width="323.6" height="0.5"/>
					<rect x="147.4" y="191.2" width="300.6" height="0.5"/>
					<rect x="393.6" y="155.2" transform="matrix(0.7487 -0.6629 0.6629 0.7487 12.1556 343.0406)" width="129.9" height="0.5"/>
					<rect x="361.9" y="155.2" transform="matrix(0.6471 -0.7624 0.7624 0.6471 29.1138 373.8107)" width="112.8" height="0.5"/>
					<rect x="328.7" y="155.2" transform="matrix(0.492 -0.8706 0.8706 0.492 56.725 408.1728)" width="98.8" height="0.5"/>
					<rect x="293.2" y="155.2" transform="matrix(0.2719 -0.9623 0.9623 0.2719 96.3762 438.3606)" width="89.4" height="0.5"/>
					<rect x="297.4" y="112.5" width="0.5" height="86"/>
					<rect x="257.2" y="110.7" transform="matrix(0.9622 -0.2723 0.2723 0.9622 -32.5986 75.9619)" width="0.5" height="89.4"/>
					<rect x="216.9" y="106.1" transform="matrix(0.8704 -0.4924 0.4924 0.8704 -48.4007 127.1008)" width="0.5" height="98.8"/>
					<rect x="176.7" y="99.1" transform="matrix(0.7624 -0.6471 0.6471 0.7624 -58.5601 151.428)" width="0.5" height="112.8"/>
					<rect x="136.5" y="90.5" transform="matrix(0.6622 -0.7493 0.7493 0.6622 -70.3203 154.9611)" width="0.5" height="129.9"/>
				</g>
				<g>
					<rect x="-53.2" y="49.1" width="701.7" height="0.5"/>
					<rect x="-2.3" y="84.8" width="600" height="0.5"/>
					<polygon points="507.4,111.8 507.1,111.4 634.9,-0.1 635.3,0.3 					"/>
					<polygon points="455,111.8 454.6,111.5 550.4,-0.1 550.8,0.2 					"/>
					<rect x="370.1" y="55.6" transform="matrix(0.498 -0.8672 0.8672 0.498 169.6405 404.7634)" width="128.6" height="0.5"/>
					<rect x="307.9" y="55.6" transform="matrix(0.2755 -0.9613 0.9613 0.2755 211.5332 392.2785)" width="116.1" height="0.5"/>
					<rect x="297.4" y="0.1" width="0.5" height="111.6"/>
					<rect x="229.1" y="-2.2" transform="matrix(0.9615 -0.2748 0.2748 0.9615 -6.5235 65.1623)" width="0.5" height="116"/>
					<polygon points="192.6,111.8 129,0.2 129.4,-0.1 193.1,111.5 					"/>
					<polygon points="140.3,111.8 49.5,0.2 49.9,-0.1 140.6,111.5 					"/>
					<polygon points="87.9,111.8 -39.9,0.3 -39.6,-0.1 88.2,111.4 					"/>
				</g>
			</g>
		</g>
	</g>
</g>
</svg>
